<?xml version="1.0" encoding="UTF-8" standalone="no"?>
<!-- Created with Inkscape (http://www.inkscape.org/) -->

<svg
   width="1024"
   height="1024"
   viewBox="0 0 270.93333 270.93333"
   version="1.1"
   id="svg1"
   inkscape:version="1.4 (e7c3feb100, 2024-10-09)"
   sodipodi:docname="luanox_icon.svg"
   xmlns:inkscape="http://www.inkscape.org/namespaces/inkscape"
   xmlns:sodipodi="http://sodipodi.sourceforge.net/DTD/sodipodi-0.dtd"
   xmlns="http://www.w3.org/2000/svg"
   xmlns:svg="http://www.w3.org/2000/svg">
  <sodipodi:namedview
     id="namedview1"
     pagecolor="#ffffff"
     bordercolor="#000000"
     borderopacity="0.25"
     inkscape:showpageshadow="2"
     inkscape:pageopacity="0.0"
     inkscape:pagecheckerboard="true"
     inkscape:deskcolor="#d1d1d1"
     inkscape:document-units="px"
     inkscape:zoom="0.5"
     inkscape:cx="513"
     inkscape:cy="475"
     inkscape:window-width="1202"
     inkscape:window-height="1051"
     inkscape:window-x="26"
     inkscape:window-y="23"
     inkscape:window-maximized="0"
     inkscape:current-layer="layer1" />
  <defs
     id="defs1">
    <inkscape:path-effect
       effect="bspline"
       id="path-effect18"
       is_visible="true"
       lpeversion="1.3"
       weight="33.333333"
       steps="2"
       helper_size="0"
       apply_no_weight="true"
       apply_with_weight="true"
       only_selected="false"
       uniform="false" />
    <inkscape:path-effect
       effect="fillet_chamfer"
       id="path-effect1"
       is_visible="true"
       lpeversion="1"
       nodesatellites_param="F,0,0,1,0,0,0,1 @ F,0,0,1,0,0,0,1 @ F,0,0,1,0,0,0,1 @ F,0,0,1,0,0,0,1 @ F,0,0,1,0,0,0,1 @ F,0,0,1,0,0,0,1 @ F,0,0,1,0,0,0,1 @ F,0,0,1,0,0,0,1"
       radius="0"
       unit="px"
       method="auto"
       mode="F"
       chamfer_steps="1"
       flexible="false"
       use_knot_distance="true"
       apply_no_radius="true"
       apply_with_radius="true"
       only_selected="false"
       hide_knots="false" />
  </defs>
  <g
     inkscape:label="Layer 1"
     inkscape:groupmode="layer"
     id="layer1">
    <path
       style="fill:#0d5480;fill-opacity:1;stroke-width:0.257134"
       id="rect1"
       width="236.48772"
       height="236.48772"
       x="17.222807"
       y="17.222807"
       sodipodi:type="rect"
       d="M 39.909657,17.222807 H 231.02367 c 12.56852,0 22.68685,10.118335 22.68685,22.68685 V 231.02367 c 0,12.56852 -10.11833,22.68685 -22.68685,22.68685 H 39.909657 c -12.568515,0 -22.68685,-10.11833 -22.68685,-22.68685 V 39.909657 c 0,-12.568515 10.118335,-22.68685 22.68685,-22.68685 z"
       ry="22.68685"
       inkscape:path-effect="#path-effect1" />
    <g
       id="g15"
       transform="translate(13.127621,0.105753)">
      <path
         id="path1"
         style="fill:#ffffff;stroke-width:0.266924"
         d="m 135.46666,35.993668 a 99.473106,99.473106 0 0 0 -99.472992,99.472992 99.473106,99.473106 0 0 0 99.472992,99.473 99.473106,99.473106 0 0 0 73.21776,-32.15979 91.18368,91.18368 0 0 1 -22.17229,2.92902 91.18368,91.18368 0 0 1 -91.183583,-91.1841 91.18368,91.18368 0 0 1 45.005003,-78.411749 99.473106,99.473106 0 0 0 -4.86689,-0.119373 z" />
      <path
         id="path13"
         style="fill:#063551;fill-opacity:1;stroke-width:0.276559"
         d="m 140.08616,36.226506 c -15.83419,7.49839 -28.39101,19.55618 -37.36113,34.875974 -7.197955,12.164096 -11.563008,26.13541 -12.516499,40.29621 -1.436088,20.28574 4.043199,41.0657 15.465129,57.81466 9.1988,13.56082 22.02929,24.51308 36.8084,31.16272 12.65538,5.73139 26.70862,8.39646 40.54767,7.60673 7.21008,-0.39455 14.48843,-1.70712 21.36991,-3.92454 1.27516,-0.39697 3.02678,-0.82541 4.28371,-1.27879 -24.57977,-5.37068 -47.72265,-19.85102 -62.9179,-40.36923 -15.74903,-20.91889 -23.78069,-47.83071 -21.82395,-74.182458 1.31581,-18.622571 6.31387,-36.540114 16.3902,-52.113723 -0.088,0.04093 -0.15749,0.07153 -0.24554,0.112447 z"
         sodipodi:nodetypes="cccccccccccc" />
    </g>
  </g>
</svg>
